<mxfile host="app.diagrams.net" modified="2024-01-17T14:22:32.625Z" agent="Mozilla/5.0 (Windows NT 10.0; Win64; x64) AppleWebKit/537.36 (KHTML, like Gecko) Chrome/120.0.0.0 Safari/537.36" etag="NnC1LzJV5GYRklY22fNr" version="22.1.21" type="github">
  <diagram name="Page-1" id="wsTwDKJttdFrNlq-yoNL">
    <mxGraphModel dx="1018" dy="1773" grid="1" gridSize="10" guides="1" tooltips="1" connect="1" arrows="1" fold="1" page="1" pageScale="1" pageWidth="827" pageHeight="1169" math="0" shadow="0">
      <root>
        <mxCell id="0" />
        <mxCell id="1" parent="0" />
        <mxCell id="fOkP95LbUyY7o67YRdoy-45" value="" style="rounded=0;whiteSpace=wrap;html=1;fillColor=#b0e3e6;strokeColor=#0e8088;" vertex="1" parent="1">
          <mxGeometry x="130" y="50" width="540" height="200" as="geometry" />
        </mxCell>
        <mxCell id="fOkP95LbUyY7o67YRdoy-7" value="On- Premise K8S" style="text;html=1;strokeColor=none;fillColor=none;align=center;verticalAlign=middle;whiteSpace=wrap;rounded=0;fontStyle=1;fontColor=#3333FF;" vertex="1" parent="1">
          <mxGeometry x="560" y="290" width="110" height="30" as="geometry" />
        </mxCell>
        <mxCell id="fOkP95LbUyY7o67YRdoy-35" style="edgeStyle=orthogonalEdgeStyle;rounded=0;orthogonalLoop=1;jettySize=auto;html=1;" edge="1" parent="1" source="fOkP95LbUyY7o67YRdoy-34" target="fOkP95LbUyY7o67YRdoy-8">
          <mxGeometry relative="1" as="geometry" />
        </mxCell>
        <mxCell id="fOkP95LbUyY7o67YRdoy-34" value="&lt;a href=&quot;https://github.com/ch-robinson-internal/tf-az-d365-live&quot;&gt;Service account repo&lt;/a&gt;" style="dashed=0;outlineConnect=0;html=1;align=center;labelPosition=center;verticalLabelPosition=bottom;verticalAlign=top;shape=mxgraph.weblogos.github" vertex="1" parent="1">
          <mxGeometry x="725" y="115" width="75" height="75" as="geometry" />
        </mxCell>
        <mxCell id="fOkP95LbUyY7o67YRdoy-38" style="edgeStyle=orthogonalEdgeStyle;rounded=0;orthogonalLoop=1;jettySize=auto;html=1;entryX=0.5;entryY=0;entryDx=0;entryDy=0;" edge="1" parent="1" source="fOkP95LbUyY7o67YRdoy-36" target="fOkP95LbUyY7o67YRdoy-19">
          <mxGeometry relative="1" as="geometry" />
        </mxCell>
        <mxCell id="fOkP95LbUyY7o67YRdoy-36" value="&lt;a href=&quot;https://github.com/ch-robinson-internal/tf-az-azure-active-directory-live&quot;&gt;Service principal repo&lt;/a&gt;" style="dashed=0;outlineConnect=0;html=1;align=center;labelPosition=center;verticalLabelPosition=bottom;verticalAlign=top;shape=mxgraph.weblogos.github" vertex="1" parent="1">
          <mxGeometry x="212.5" y="-80" width="75" height="75" as="geometry" />
        </mxCell>
        <mxCell id="fOkP95LbUyY7o67YRdoy-39" value="&lt;a href=&quot;https://github.com/ch-robinson-internal/VaultConfiguration.Premise.Prod&quot;&gt;Vault repo&lt;/a&gt;" style="dashed=0;outlineConnect=0;html=1;align=center;labelPosition=center;verticalLabelPosition=bottom;verticalAlign=top;shape=mxgraph.weblogos.github" vertex="1" parent="1">
          <mxGeometry x="169.5" y="630" width="75" height="75" as="geometry" />
        </mxCell>
        <mxCell id="fOkP95LbUyY7o67YRdoy-40" style="edgeStyle=orthogonalEdgeStyle;rounded=0;orthogonalLoop=1;jettySize=auto;html=1;entryX=0.5;entryY=1;entryDx=0;entryDy=0;entryPerimeter=0;" edge="1" parent="1" source="fOkP95LbUyY7o67YRdoy-39" target="fOkP95LbUyY7o67YRdoy-3">
          <mxGeometry relative="1" as="geometry" />
        </mxCell>
        <mxCell id="fOkP95LbUyY7o67YRdoy-43" value="&lt;ol&gt;&lt;li&gt;Storage Account&lt;/li&gt;&lt;li&gt;Resource Group&lt;/li&gt;&lt;li&gt;&lt;span style=&quot;background-color: initial;&quot;&gt;Premission&lt;/span&gt;&lt;/li&gt;&lt;li&gt;Container&lt;/li&gt;&lt;/ol&gt;" style="strokeWidth=1;shadow=0;dashed=0;align=left;html=1;shape=mxgraph.mockup.text.stickyNote2;fontColor=#666666;mainText=;fontSize=12;whiteSpace=wrap;fillColor=#ffffcc;strokeColor=#F62E00;" vertex="1" parent="1">
          <mxGeometry x="827" y="100" width="180" height="110" as="geometry" />
        </mxCell>
        <mxCell id="fOkP95LbUyY7o67YRdoy-44" value="Create&amp;nbsp; Azure App" style="strokeWidth=1;shadow=0;dashed=0;align=center;html=1;shape=mxgraph.mockup.text.stickyNote2;fontColor=#666666;mainText=;fontSize=12;whiteSpace=wrap;fillColor=#ffffcc;strokeColor=#F62E00;" vertex="1" parent="1">
          <mxGeometry x="300" y="-80" width="140" height="70" as="geometry" />
        </mxCell>
        <mxCell id="fOkP95LbUyY7o67YRdoy-48" value="" style="group" vertex="1" connectable="0" parent="1">
          <mxGeometry x="190" y="50" width="480" height="145" as="geometry" />
        </mxCell>
        <mxCell id="fOkP95LbUyY7o67YRdoy-8" value="Azure Blob" style="verticalLabelPosition=bottom;html=1;verticalAlign=top;align=center;strokeColor=none;fillColor=#00BEF2;shape=mxgraph.azure.storage_blob;" vertex="1" parent="fOkP95LbUyY7o67YRdoy-48">
          <mxGeometry x="240" y="60" width="94.44" height="85" as="geometry" />
        </mxCell>
        <mxCell id="fOkP95LbUyY7o67YRdoy-19" value="Azure App" style="rounded=0;whiteSpace=wrap;html=1;fillColor=#1ba1e2;fontColor=#ffffff;strokeColor=#006EAF;" vertex="1" parent="fOkP95LbUyY7o67YRdoy-48">
          <mxGeometry y="72.5" width="120" height="60" as="geometry" />
        </mxCell>
        <mxCell id="fOkP95LbUyY7o67YRdoy-46" value="Azure Cloud" style="text;html=1;strokeColor=none;fillColor=none;align=center;verticalAlign=middle;whiteSpace=wrap;rounded=0;fontStyle=1;fontColor=#3333FF;" vertex="1" parent="fOkP95LbUyY7o67YRdoy-48">
          <mxGeometry x="370" width="110" height="30" as="geometry" />
        </mxCell>
        <mxCell id="fOkP95LbUyY7o67YRdoy-21" style="edgeStyle=orthogonalEdgeStyle;rounded=0;orthogonalLoop=1;jettySize=auto;html=1;entryX=1;entryY=0.5;entryDx=0;entryDy=0;dashed=1;" edge="1" parent="fOkP95LbUyY7o67YRdoy-48" source="fOkP95LbUyY7o67YRdoy-8" target="fOkP95LbUyY7o67YRdoy-19">
          <mxGeometry relative="1" as="geometry" />
        </mxCell>
        <mxCell id="fOkP95LbUyY7o67YRdoy-23" value="Assing Role" style="edgeLabel;html=1;align=center;verticalAlign=middle;resizable=0;points=[];" vertex="1" connectable="0" parent="fOkP95LbUyY7o67YRdoy-21">
          <mxGeometry x="0.0733" y="-3" relative="1" as="geometry">
            <mxPoint x="12" y="3" as="offset" />
          </mxGeometry>
        </mxCell>
        <mxCell id="fOkP95LbUyY7o67YRdoy-49" value="" style="group" vertex="1" connectable="0" parent="1">
          <mxGeometry x="130" y="290" width="540" height="280" as="geometry" />
        </mxCell>
        <mxCell id="fOkP95LbUyY7o67YRdoy-6" value="" style="rounded=0;whiteSpace=wrap;html=1;fillColor=#fad7ac;strokeColor=#b46504;" vertex="1" parent="fOkP95LbUyY7o67YRdoy-49">
          <mxGeometry width="540" height="280" as="geometry" />
        </mxCell>
        <mxCell id="fOkP95LbUyY7o67YRdoy-3" value="Vault(On-Premise)" style="outlineConnect=0;dashed=0;verticalLabelPosition=bottom;verticalAlign=top;align=center;html=1;shape=mxgraph.aws3.vault;fillColor=#E05243;gradientColor=none;" vertex="1" parent="fOkP95LbUyY7o67YRdoy-49">
          <mxGeometry x="50" y="170" width="54" height="75" as="geometry" />
        </mxCell>
        <mxCell id="fOkP95LbUyY7o67YRdoy-47" value="" style="group" vertex="1" connectable="0" parent="fOkP95LbUyY7o67YRdoy-49">
          <mxGeometry x="219.87" y="43.5" width="254.7" height="203.5" as="geometry" />
        </mxCell>
        <mxCell id="fOkP95LbUyY7o67YRdoy-13" value="" style="rounded=1;whiteSpace=wrap;html=1;fillColor=#cdeb8b;strokeColor=#36393d;" vertex="1" parent="fOkP95LbUyY7o67YRdoy-47">
          <mxGeometry width="254.7" height="203.5" as="geometry" />
        </mxCell>
        <mxCell id="fOkP95LbUyY7o67YRdoy-14" value="Pod" style="text;html=1;strokeColor=none;fillColor=none;align=center;verticalAlign=middle;whiteSpace=wrap;rounded=0;fontStyle=1;fontColor=#3333FF;" vertex="1" parent="fOkP95LbUyY7o67YRdoy-47">
          <mxGeometry x="194.42000000000002" width="52.12" height="30" as="geometry" />
        </mxCell>
        <mxCell id="fOkP95LbUyY7o67YRdoy-15" value="GF App" style="rounded=0;whiteSpace=wrap;html=1;fillColor=#60a917;fontColor=#ffffff;strokeColor=#2D7600;" vertex="1" parent="fOkP95LbUyY7o67YRdoy-47">
          <mxGeometry x="93.39000000000004" y="30" width="67.92" height="47.5" as="geometry" />
        </mxCell>
        <mxCell id="fOkP95LbUyY7o67YRdoy-16" value="Vault Side car" style="rounded=0;whiteSpace=wrap;html=1;fillColor=#e51400;fontColor=#ffffff;strokeColor=#B20000;" vertex="1" parent="fOkP95LbUyY7o67YRdoy-47">
          <mxGeometry x="93.39000000000004" y="140" width="67.92" height="47.5" as="geometry" />
        </mxCell>
        <mxCell id="fOkP95LbUyY7o67YRdoy-18" style="edgeStyle=orthogonalEdgeStyle;rounded=0;orthogonalLoop=1;jettySize=auto;html=1;" edge="1" parent="fOkP95LbUyY7o67YRdoy-47" source="fOkP95LbUyY7o67YRdoy-16" target="fOkP95LbUyY7o67YRdoy-15">
          <mxGeometry relative="1" as="geometry" />
        </mxCell>
        <mxCell id="fOkP95LbUyY7o67YRdoy-25" value="Azure App Credential" style="edgeLabel;html=1;align=center;verticalAlign=middle;resizable=0;points=[];" vertex="1" connectable="0" parent="fOkP95LbUyY7o67YRdoy-18">
          <mxGeometry x="-0.38" y="3" relative="1" as="geometry">
            <mxPoint as="offset" />
          </mxGeometry>
        </mxCell>
        <mxCell id="fOkP95LbUyY7o67YRdoy-17" style="edgeStyle=orthogonalEdgeStyle;rounded=0;orthogonalLoop=1;jettySize=auto;html=1;entryX=1;entryY=0.5;entryDx=0;entryDy=0;entryPerimeter=0;" edge="1" parent="fOkP95LbUyY7o67YRdoy-49" source="fOkP95LbUyY7o67YRdoy-16" target="fOkP95LbUyY7o67YRdoy-3">
          <mxGeometry relative="1" as="geometry" />
        </mxCell>
        <mxCell id="fOkP95LbUyY7o67YRdoy-22" style="edgeStyle=orthogonalEdgeStyle;rounded=0;orthogonalLoop=1;jettySize=auto;html=1;entryX=0;entryY=0.5;entryDx=0;entryDy=0;" edge="1" parent="1" source="fOkP95LbUyY7o67YRdoy-3" target="fOkP95LbUyY7o67YRdoy-19">
          <mxGeometry relative="1" as="geometry">
            <Array as="points">
              <mxPoint x="170" y="499" />
              <mxPoint x="170" y="153" />
            </Array>
          </mxGeometry>
        </mxCell>
        <mxCell id="fOkP95LbUyY7o67YRdoy-24" value="Generate Credential" style="edgeLabel;html=1;align=center;verticalAlign=middle;resizable=0;points=[];" vertex="1" connectable="0" parent="fOkP95LbUyY7o67YRdoy-22">
          <mxGeometry x="0.5578" y="2" relative="1" as="geometry">
            <mxPoint as="offset" />
          </mxGeometry>
        </mxCell>
        <mxCell id="fOkP95LbUyY7o67YRdoy-26" style="edgeStyle=orthogonalEdgeStyle;rounded=0;orthogonalLoop=1;jettySize=auto;html=1;" edge="1" parent="1" source="fOkP95LbUyY7o67YRdoy-15" target="fOkP95LbUyY7o67YRdoy-8">
          <mxGeometry relative="1" as="geometry" />
        </mxCell>
        <mxCell id="fOkP95LbUyY7o67YRdoy-27" value="Request" style="edgeLabel;html=1;align=center;verticalAlign=middle;resizable=0;points=[];" vertex="1" connectable="0" parent="fOkP95LbUyY7o67YRdoy-26">
          <mxGeometry x="0.045" y="1" relative="1" as="geometry">
            <mxPoint as="offset" />
          </mxGeometry>
        </mxCell>
      </root>
    </mxGraphModel>
  </diagram>
</mxfile>
